<svg width="115" height="122" viewBox="0 0 115 122" fill="none" xmlns="http://www.w3.org/2000/svg">
<g filter="url(#filter0_d_1072_2)">
<circle cx="55.5" cy="55.5" r="55.5" fill="#C4C4C4"/>
</g>
<g filter="url(#filter1_d_1072_2)">
<circle cx="94" cy="101" r="17" fill="#F93030"/>
</g>
<g clip-path="url(#clip0_1072_2)">
<path d="M103 95H99.83L98 93H92V95H97.12L98.95 97H103V109H87V100H85V109C85 110.1 85.9 111 87 111H103C104.1 111 105 110.1 105 109V97C105 95.9 104.1 95 103 95ZM90 103C90 105.76 92.24 108 95 108C97.76 108 100 105.76 100 103C100 100.24 97.76 98 95 98C92.24 98 90 100.24 90 103ZM95 100C96.65 100 98 101.35 98 103C98 104.65 96.65 106 95 106C93.35 106 92 104.65 92 103C92 101.35 93.35 100 95 100ZM87 95H90V93H87V90H85V93H82V95H85V98H87V95Z" fill="white"/>
</g>
<g clip-path="url(#clip1_1072_2)">
<path d="M56 56C64.84 56 72 48.84 72 40C72 31.16 64.84 24 56 24C47.16 24 40 31.16 40 40C40 48.84 47.16 56 56 56ZM56 64C45.32 64 24 69.36 24 80V88H88V80C88 69.36 66.68 64 56 64Z" fill="white"/>
</g>
<defs>
<filter id="filter0_d_1072_2" x="0" y="0" width="115" height="115" filterUnits="userSpaceOnUse" color-interpolation-filters="sRGB">
<feFlood flood-opacity="0" result="BackgroundImageFix"/>
<feColorMatrix in="SourceAlpha" type="matrix" values="0 0 0 0 0 0 0 0 0 0 0 0 0 0 0 0 0 0 127 0" result="hardAlpha"/>
<feOffset dx="2" dy="2"/>
<feGaussianBlur stdDeviation="1"/>
<feComposite in2="hardAlpha" operator="out"/>
<feColorMatrix type="matrix" values="0 0 0 0 0 0 0 0 0 0 0 0 0 0 0 0 0 0 0.25 0"/>
<feBlend mode="normal" in2="BackgroundImageFix" result="effect1_dropShadow_1072_2"/>
<feBlend mode="normal" in="SourceGraphic" in2="effect1_dropShadow_1072_2" result="shape"/>
</filter>
<filter id="filter1_d_1072_2" x="77" y="84" width="38" height="38" filterUnits="userSpaceOnUse" color-interpolation-filters="sRGB">
<feFlood flood-opacity="0" result="BackgroundImageFix"/>
<feColorMatrix in="SourceAlpha" type="matrix" values="0 0 0 0 0 0 0 0 0 0 0 0 0 0 0 0 0 0 127 0" result="hardAlpha"/>
<feOffset dx="2" dy="2"/>
<feGaussianBlur stdDeviation="1"/>
<feComposite in2="hardAlpha" operator="out"/>
<feColorMatrix type="matrix" values="0 0 0 0 0 0 0 0 0 0 0 0 0 0 0 0 0 0 0.25 0"/>
<feBlend mode="normal" in2="BackgroundImageFix" result="effect1_dropShadow_1072_2"/>
<feBlend mode="normal" in="SourceGraphic" in2="effect1_dropShadow_1072_2" result="shape"/>
</filter>
<clipPath id="clip0_1072_2">
<rect width="24" height="24" fill="white" transform="translate(82 89)"/>
</clipPath>
<clipPath id="clip1_1072_2">
<rect width="96" height="96" fill="white" transform="translate(8 8)"/>
</clipPath>
</defs>
</svg>
